<mxfile host="app.diagrams.net" modified="2021-11-10T01:03:33.814Z" agent="5.0 (Windows NT 10.0; Win64; x64) AppleWebKit/537.36 (KHTML, like Gecko) Chrome/95.0.4638.69 Safari/537.36" etag="dPWNHo6jDlwc1WdTJjcm" version="15.7.0" type="github">
  <diagram name="Page-1" id="13e1069c-82ec-6db2-03f1-153e76fe0fe0">
    <mxGraphModel dx="2062" dy="794" grid="1" gridSize="10" guides="1" tooltips="1" connect="1" arrows="1" fold="1" page="1" pageScale="1" pageWidth="1100" pageHeight="850" background="none" math="0" shadow="0">
      <root>
        <mxCell id="0" />
        <mxCell id="1" parent="0" />
        <mxCell id="7baba1c4bc27f4b0-2" value="NIG" style="shape=umlLifeline;perimeter=lifelinePerimeter;whiteSpace=wrap;html=1;container=1;collapsible=0;recursiveResize=0;outlineConnect=0;rounded=1;shadow=0;comic=0;labelBackgroundColor=none;strokeWidth=1;fontFamily=Verdana;fontSize=12;align=center;" parent="1" vertex="1">
          <mxGeometry x="510" y="80" width="100" height="580" as="geometry" />
        </mxCell>
        <mxCell id="7baba1c4bc27f4b0-10" value="" style="html=1;points=[];perimeter=orthogonalPerimeter;rounded=0;shadow=0;comic=0;labelBackgroundColor=none;strokeWidth=1;fontFamily=Verdana;fontSize=12;align=center;" parent="7baba1c4bc27f4b0-2" vertex="1">
          <mxGeometry x="45" y="100" width="10" height="430" as="geometry" />
        </mxCell>
        <mxCell id="_iOlRguKoxTa1Bor_IQQ-11" value="" style="html=1;verticalAlign=bottom;endArrow=block;labelBackgroundColor=none;fontFamily=Verdana;fontSize=12;" edge="1" parent="7baba1c4bc27f4b0-2">
          <mxGeometry relative="1" as="geometry">
            <mxPoint x="-205" y="230" as="sourcePoint" />
            <mxPoint x="285.5" y="230" as="targetPoint" />
            <Array as="points">
              <mxPoint x="-44.5" y="230" />
            </Array>
          </mxGeometry>
        </mxCell>
        <mxCell id="_iOlRguKoxTa1Bor_IQQ-12" value="Activate Tone" style="edgeLabel;html=1;align=center;verticalAlign=middle;resizable=0;points=[];fontSize=12;" vertex="1" connectable="0" parent="_iOlRguKoxTa1Bor_IQQ-11">
          <mxGeometry x="0.151" y="-2" relative="1" as="geometry">
            <mxPoint x="-16" y="-22" as="offset" />
          </mxGeometry>
        </mxCell>
        <mxCell id="_iOlRguKoxTa1Bor_IQQ-20" value="" style="html=1;verticalAlign=bottom;endArrow=block;labelBackgroundColor=none;fontFamily=Verdana;fontSize=12;" edge="1" parent="7baba1c4bc27f4b0-2">
          <mxGeometry relative="1" as="geometry">
            <mxPoint x="-205" y="300" as="sourcePoint" />
            <mxPoint x="40" y="300" as="targetPoint" />
            <Array as="points">
              <mxPoint x="-44.5" y="300" />
            </Array>
          </mxGeometry>
        </mxCell>
        <mxCell id="_iOlRguKoxTa1Bor_IQQ-21" value="Get Circuit Details" style="edgeLabel;html=1;align=center;verticalAlign=middle;resizable=0;points=[];fontSize=12;" vertex="1" connectable="0" parent="_iOlRguKoxTa1Bor_IQQ-20">
          <mxGeometry x="0.151" y="-2" relative="1" as="geometry">
            <mxPoint x="-16" y="-12" as="offset" />
          </mxGeometry>
        </mxCell>
        <mxCell id="_iOlRguKoxTa1Bor_IQQ-9" value="" style="html=1;verticalAlign=bottom;endArrow=block;labelBackgroundColor=none;fontFamily=Verdana;fontSize=12;entryX=-0.5;entryY=0.602;entryDx=0;entryDy=0;entryPerimeter=0;" edge="1" parent="7baba1c4bc27f4b0-2">
          <mxGeometry relative="1" as="geometry">
            <mxPoint x="-205" y="380.46" as="sourcePoint" />
            <mxPoint x="290" y="379.3200000000001" as="targetPoint" />
            <Array as="points">
              <mxPoint x="-60" y="380.46" />
            </Array>
          </mxGeometry>
        </mxCell>
        <mxCell id="_iOlRguKoxTa1Bor_IQQ-10" value="Remove A32 Tone" style="edgeLabel;html=1;align=center;verticalAlign=middle;resizable=0;points=[];fontSize=12;" vertex="1" connectable="0" parent="_iOlRguKoxTa1Bor_IQQ-9">
          <mxGeometry x="0.151" y="-2" relative="1" as="geometry">
            <mxPoint x="-16" y="-22" as="offset" />
          </mxGeometry>
        </mxCell>
        <mxCell id="7baba1c4bc27f4b0-8" value="SPORA" style="shape=umlLifeline;perimeter=lifelinePerimeter;whiteSpace=wrap;html=1;container=1;collapsible=0;recursiveResize=0;outlineConnect=0;rounded=1;shadow=0;comic=0;labelBackgroundColor=none;strokeWidth=1;fontFamily=Verdana;fontSize=12;align=center;" parent="1" vertex="1">
          <mxGeometry x="250" y="80" width="120" height="580" as="geometry" />
        </mxCell>
        <mxCell id="7baba1c4bc27f4b0-9" value="" style="html=1;points=[];perimeter=orthogonalPerimeter;rounded=0;shadow=0;comic=0;labelBackgroundColor=none;strokeWidth=1;fontFamily=Verdana;fontSize=12;align=center;" parent="7baba1c4bc27f4b0-8" vertex="1">
          <mxGeometry x="45" y="85" width="10" height="440" as="geometry" />
        </mxCell>
        <mxCell id="_iOlRguKoxTa1Bor_IQQ-22" value="Request:&lt;br&gt;1.Combo Card Details" style="shape=note;whiteSpace=wrap;html=1;size=14;verticalAlign=top;align=left;spacingTop=-6;rounded=0;shadow=0;comic=0;labelBackgroundColor=none;strokeWidth=1;fontFamily=Verdana;fontSize=12" vertex="1" parent="7baba1c4bc27f4b0-8">
          <mxGeometry x="-70" y="200" width="110" height="55" as="geometry" />
        </mxCell>
        <mxCell id="_iOlRguKoxTa1Bor_IQQ-23" value="Request:&lt;br&gt;1.Service order" style="shape=note;whiteSpace=wrap;html=1;size=14;verticalAlign=top;align=left;spacingTop=-6;rounded=0;shadow=0;comic=0;labelBackgroundColor=none;strokeWidth=1;fontFamily=Verdana;fontSize=12" vertex="1" parent="7baba1c4bc27f4b0-8">
          <mxGeometry x="-70" y="277.5" width="110" height="55" as="geometry" />
        </mxCell>
        <mxCell id="_iOlRguKoxTa1Bor_IQQ-25" value="Request:&lt;br&gt;1.A32 Card Details" style="shape=note;whiteSpace=wrap;html=1;size=14;verticalAlign=top;align=left;spacingTop=-6;rounded=0;shadow=0;comic=0;labelBackgroundColor=none;strokeWidth=1;fontFamily=Verdana;fontSize=12" vertex="1" parent="7baba1c4bc27f4b0-8">
          <mxGeometry x="-70" y="360" width="110" height="55" as="geometry" />
        </mxCell>
        <mxCell id="_iOlRguKoxTa1Bor_IQQ-5" value="" style="endArrow=classic;html=1;rounded=0;" edge="1" parent="1" source="7baba1c4bc27f4b0-9" target="7baba1c4bc27f4b0-10">
          <mxGeometry width="50" height="50" relative="1" as="geometry">
            <mxPoint x="320" y="300" as="sourcePoint" />
            <mxPoint x="330" y="250" as="targetPoint" />
            <Array as="points">
              <mxPoint x="400" y="240" />
              <mxPoint x="520" y="240" />
            </Array>
          </mxGeometry>
        </mxCell>
        <mxCell id="_iOlRguKoxTa1Bor_IQQ-7" value="Add streamyx" style="edgeLabel;html=1;align=center;verticalAlign=middle;resizable=0;points=[];fontSize=12;" vertex="1" connectable="0" parent="_iOlRguKoxTa1Bor_IQQ-5">
          <mxGeometry x="0.096" y="3" relative="1" as="geometry">
            <mxPoint x="-12" y="-7" as="offset" />
          </mxGeometry>
        </mxCell>
        <mxCell id="7baba1c4bc27f4b0-41" value="Response&lt;br&gt;1.Status&lt;br&gt;2.Reservation ID&lt;br&gt;3.ServiceNO&lt;br&gt;4.New Combo Card&lt;br&gt;5.Old A32 Card" style="shape=note;whiteSpace=wrap;html=1;size=14;verticalAlign=top;align=left;spacingTop=-6;rounded=0;shadow=0;comic=0;labelBackgroundColor=none;strokeWidth=1;fontFamily=Verdana;fontSize=12" parent="1" vertex="1">
          <mxGeometry x="580" y="180" width="130" height="90" as="geometry" />
        </mxCell>
        <mxCell id="7baba1c4bc27f4b0-40" value="Request:&lt;br&gt;1.Service number&lt;br&gt;" style="shape=note;whiteSpace=wrap;html=1;size=14;verticalAlign=top;align=left;spacingTop=-6;rounded=0;shadow=0;comic=0;labelBackgroundColor=none;strokeWidth=1;fontFamily=Verdana;fontSize=12" parent="1" vertex="1">
          <mxGeometry x="180" y="190" width="110" height="55" as="geometry" />
        </mxCell>
        <mxCell id="_iOlRguKoxTa1Bor_IQQ-13" value="OSM/ASAP" style="shape=umlLifeline;perimeter=lifelinePerimeter;whiteSpace=wrap;html=1;container=1;collapsible=0;recursiveResize=0;outlineConnect=0;rounded=1;shadow=0;comic=0;labelBackgroundColor=none;strokeWidth=1;fontFamily=Verdana;fontSize=12;align=center;" vertex="1" parent="1">
          <mxGeometry x="760" y="80" width="100" height="580" as="geometry" />
        </mxCell>
        <mxCell id="_iOlRguKoxTa1Bor_IQQ-14" value="" style="html=1;points=[];perimeter=orthogonalPerimeter;rounded=0;shadow=0;comic=0;labelBackgroundColor=none;strokeWidth=1;fontFamily=Verdana;fontSize=12;align=center;" vertex="1" parent="_iOlRguKoxTa1Bor_IQQ-13">
          <mxGeometry x="45" y="100" width="10" height="430" as="geometry" />
        </mxCell>
        <mxCell id="_iOlRguKoxTa1Bor_IQQ-16" value="" style="endArrow=classic;html=1;rounded=0;" edge="1" parent="1">
          <mxGeometry width="50" height="50" relative="1" as="geometry">
            <mxPoint x="305" y="560" as="sourcePoint" />
            <mxPoint x="555" y="560" as="targetPoint" />
            <Array as="points">
              <mxPoint x="400" y="560" />
              <mxPoint x="465" y="560" />
              <mxPoint x="520" y="560" />
            </Array>
          </mxGeometry>
        </mxCell>
        <mxCell id="_iOlRguKoxTa1Bor_IQQ-17" value="Inventory Complete" style="edgeLabel;html=1;align=center;verticalAlign=middle;resizable=0;points=[];fontSize=12;" vertex="1" connectable="0" parent="_iOlRguKoxTa1Bor_IQQ-16">
          <mxGeometry x="0.096" y="3" relative="1" as="geometry">
            <mxPoint x="-12" y="-7" as="offset" />
          </mxGeometry>
        </mxCell>
        <mxCell id="_iOlRguKoxTa1Bor_IQQ-24" value="Request:&lt;br&gt;1.Service Order" style="shape=note;whiteSpace=wrap;html=1;size=14;verticalAlign=top;align=left;spacingTop=-6;rounded=0;shadow=0;comic=0;labelBackgroundColor=none;strokeWidth=1;fontFamily=Verdana;fontSize=12" vertex="1" parent="1">
          <mxGeometry x="180" y="530" width="110" height="55" as="geometry" />
        </mxCell>
        <mxCell id="_iOlRguKoxTa1Bor_IQQ-26" value="Response&lt;br&gt;1.Status&lt;br&gt;2.Reservation ID&lt;br&gt;3.ServiceNO&lt;br&gt;4.New Combo Card Details&lt;br&gt;5.Old A32 Card" style="shape=note;whiteSpace=wrap;html=1;size=14;verticalAlign=top;align=left;spacingTop=-6;rounded=0;shadow=0;comic=0;labelBackgroundColor=none;strokeWidth=1;fontFamily=Verdana;fontSize=12" vertex="1" parent="1">
          <mxGeometry x="570" y="335" width="180" height="90" as="geometry" />
        </mxCell>
        <mxCell id="_iOlRguKoxTa1Bor_IQQ-27" value="Response&lt;br&gt;1.Status&lt;br&gt;2.Reservation ID&lt;br&gt;3.ServiceNO" style="shape=note;whiteSpace=wrap;html=1;size=14;verticalAlign=top;align=left;spacingTop=-6;rounded=0;shadow=0;comic=0;labelBackgroundColor=none;strokeWidth=1;fontFamily=Verdana;fontSize=12" vertex="1" parent="1">
          <mxGeometry x="580" y="520" width="130" height="90" as="geometry" />
        </mxCell>
        <mxCell id="_iOlRguKoxTa1Bor_IQQ-28" value="Response&lt;br&gt;1.Status&lt;br&gt;" style="shape=note;whiteSpace=wrap;html=1;size=14;verticalAlign=top;align=left;spacingTop=-6;rounded=0;shadow=0;comic=0;labelBackgroundColor=none;strokeWidth=1;fontFamily=Verdana;fontSize=12" vertex="1" parent="1">
          <mxGeometry x="830" y="425" width="130" height="90" as="geometry" />
        </mxCell>
        <mxCell id="_iOlRguKoxTa1Bor_IQQ-29" value="Response&lt;br&gt;1.Status&lt;br&gt;" style="shape=note;whiteSpace=wrap;html=1;size=14;verticalAlign=top;align=left;spacingTop=-6;rounded=0;shadow=0;comic=0;labelBackgroundColor=none;strokeWidth=1;fontFamily=Verdana;fontSize=12" vertex="1" parent="1">
          <mxGeometry x="830" y="260" width="130" height="90" as="geometry" />
        </mxCell>
        <mxCell id="_iOlRguKoxTa1Bor_IQQ-30" value="" style="endArrow=classic;html=1;rounded=0;fontSize=12;" edge="1" parent="1" source="7baba1c4bc27f4b0-2" target="7baba1c4bc27f4b0-8">
          <mxGeometry width="50" height="50" relative="1" as="geometry">
            <mxPoint x="520" y="430" as="sourcePoint" />
            <mxPoint x="570" y="380" as="targetPoint" />
            <Array as="points">
              <mxPoint x="500" y="400" />
              <mxPoint x="470" y="400" />
            </Array>
          </mxGeometry>
        </mxCell>
        <mxCell id="_iOlRguKoxTa1Bor_IQQ-31" value="" style="endArrow=classic;html=1;rounded=0;fontSize=12;" edge="1" parent="1">
          <mxGeometry width="50" height="50" relative="1" as="geometry">
            <mxPoint x="550" y="260" as="sourcePoint" />
            <mxPoint x="300" y="260" as="targetPoint" />
            <Array as="points">
              <mxPoint x="490.5" y="260" />
              <mxPoint x="460.5" y="260" />
            </Array>
          </mxGeometry>
        </mxCell>
        <mxCell id="_iOlRguKoxTa1Bor_IQQ-32" value="" style="endArrow=classic;html=1;rounded=0;fontSize=12;" edge="1" parent="1">
          <mxGeometry width="50" height="50" relative="1" as="geometry">
            <mxPoint x="560" y="585" as="sourcePoint" />
            <mxPoint x="310" y="585" as="targetPoint" />
            <Array as="points">
              <mxPoint x="500.5" y="585" />
              <mxPoint x="470.5" y="585" />
            </Array>
          </mxGeometry>
        </mxCell>
      </root>
    </mxGraphModel>
  </diagram>
</mxfile>
